<svg style="max-height: 500px" version="1.0" xmlns="http://www.w3.org/2000/svg" viewBox="3.916567800333 129.2598693832599 395.6891229 120.15198237885463" preserveAspectRatio="xMidYMid meet" width="395.6891229" height="120.15198237885463">
<metadata>
Created by potrace 1.10, written by Peter Selinger 2001-2011
</metadata>
<g transform="translate(0.000000,450.000000) scale(0.050000,-0.050000)" fill="#000000" stroke="none">
<path d="M2716 5976 c16 -16 24 -108 24 -280 l0 -256 80 0 c44 0 80 -9 80 -20&#10;0 -11 9 -20 20 -20 11 0 20 23 20 50 0 28 -9 50 -20 50 -11 0 -20 44 -20 98&#10;l0 98 160 -1 160 -2 0 -126 c0 -100 6 -127 30 -127 17 0 30 -11 30 -24 0 -17&#10;6 -18 21 -3 15 15 15 71 0 186 -13 109 -14 177 -1 202 26 47 26 139 0 139 -11&#10;0 -20 14 -20 30 0 17 -13 30 -30 30 -23 0 -30 -27 -30 -120 l0 -120 -160 0&#10;-160 0 0 56 c0 31 11 68 25 82 20 22 20 29 0 36 -14 5 -25 22 -25 38 0 20 -28&#10;28 -104 28 -81 0 -99 -5 -80 -24z m124 -276 c0 -147 -8 -240 -20 -240 -12 0&#10;-20 93 -20 240 0 147 8 240 20 240 12 0 20 -93 20 -240z"/>
<path d="M3720 5985 c0 -8 -72 -132 -161 -275 -134 -217 -155 -261 -125 -267&#10;20 -4 42 -18 50 -30 17 -26 11 -33 101 122 40 69 65 125 55 125 -9 0 -38 -36&#10;-62 -80 -25 -44 -49 -76 -53 -71 -11 10 216 391 232 391 15 0 118 -155 250&#10;-375 10 -15 4 -25 -13 -25 -15 0 -75 77 -132 171 -57 93 -113 164 -124 158&#10;-60 -37 172 -388 257 -388 36 -1 65 -10 65 -21 0 -11 18 -20 40 -20 39 0 56&#10;48 23 68 -9 6 -87 128 -175 271 -139 229 -228 325 -228 246z"/>
<path d="M4268 5968 c7 -17 12 -143 12 -280 0 -223 4 -248 35 -248 32 0 34 23&#10;28 250 -5 173 0 250 15 250 15 0 22 -80 22 -245 0 -242 1 -245 50 -268 46 -21&#10;50 -19 50 26 0 28 -9 44 -20 37 -13 -8 -20 63 -20 197 0 148 7 213 25 221 20&#10;10 20 14 0 24 -14 6 -25 24 -25 40 0 20 -26 28 -92 28 -76 0 -90 -6 -80 -32z"/>
<path d="M5417 5971 c-175 -99 -178 -395 -5 -494 75 -43 385 -65 428 -31 72&#10;57 88 101 18 48 -39 -30 -84 -54 -100 -54 -15 0 2 18 38 41 152 92 178 300 55&#10;435 -79 86 -324 117 -434 55z m330 -64 c214 -102 116 -407 -130 -407 -134 1&#10;-198 32 -241 121 -112 228 120 406 371 286z"/>
<path d="M5459 5891 c-53 -29 -114 -131 -79 -131 11 0 20 9 20 20 0 30 66 100&#10;93 100 14 0 30 9 37 20 17 27 -10 24 -71 -9z"/>
<path d="M5996 5976 c16 -16 24 -108 24 -280 0 -230 3 -256 35 -256 32 0 34&#10;23 29 250 -4 166 1 250 15 250 14 0 21 -88 21 -250 0 -233 3 -250 38 -250 21&#10;0 43 -11 49 -25 5 -14 11 0 11 31 1 33 -6 51 -18 44 -13 -8 -20 58 -20 184 l0&#10;196 40 -65 c22 -36 67 -119 100 -186 34 -66 70 -115 81 -109 10 7 19 2 19 -10&#10;0 -12 10 -16 22 -9 12 7 16 33 10 56 -11 42 80 293 107 293 7 0 12 -90 11&#10;-200 -2 -178 2 -200 33 -200 19 0 40 -9 47 -20 25 -40 130 -23 130 20 0 22 -9&#10;40 -20 40 -12 0 -20 100 -20 260 0 234 -3 260 -35 260 -31 0 -35 -25 -35 -240&#10;0 -150 -8 -238 -20 -235 -11 3 -21 91 -23 205 -4 274 -4 270 -34 270 -14 0&#10;-65 -81 -112 -180 -101 -212 -96 -210 -166 -64 -113 235 -122 244 -239 244&#10;-81 0 -99 -5 -80 -24z"/>
<path d="M4683 5945 c-84 -71 -50 -245 48 -245 42 0 37 -14 -44 -124 -52 -71&#10;-66 -105 -51 -120 30 -30 60 -3 134 122 57 97 64 101 147 102 l87 0 -7 -115&#10;c-6 -96 -1 -115 28 -121 32 -6 35 16 35 245 0 154 8 251 20 251 12 0 20 -97&#10;20 -250 0 -209 5 -250 30 -250 25 0 30 41 30 246 0 165 8 254 24 270 44 44&#10;-449 33 -501 -11z m313 -110 l6 -95 -119 0 c-132 0 -190 34 -179 107 8 58 89&#10;94 196 88 l90 -5 6 -95z"/>
<path d="M2744 5282 c-13 -8 -23 -132 -26 -332 l-4 -320 88 -14 c130 -19 2434&#10;-19 2446 1 6 9 0 45 -12 78 -88 234 121 373 487 324 103 -14 336 -26 518 -27&#10;l332 -2 74 57 c92 70 91 123 -5 187 l-68 46 -1872 2 c-1030 0 -1887 4 -1904 7&#10;-18 4 -42 1 -54 -7z m3796 -162 c0 -25 -91 -48 -130 -33 -46 18 -36 69 15 78&#10;51 8 115 -17 115 -45z m-3500 -240 c0 -136 1 -140 50 -140 53 0 56 -5 37 -75&#10;-10 -39 -25 -45 -117 -45 l-105 0 -12 75 c-7 41 -13 131 -13 200 l0 125 80 0&#10;80 0 0 -140z m397 5 c-7 -135 -7 -135 49 -141 48 -6 55 -15 50 -60 -7 -61&#10;-356 -92 -356 -32 0 14 -5 39 -12 56 -10 25 2 32 51 32 l64 0 -3 125 c-2 69&#10;-2 132 -2 140 1 8 39 15 84 15 l82 0 -7 -135z m389 -50 c-14 -219 -2 -201&#10;-127 -207 -92 -5 -103 0 -120 45 -26 68 -27 67 44 67 l63 0 -13 140 -13 140&#10;89 0 88 0 -11 -185z m171 50 c-7 -127 -4 -135 38 -141 107 -16 58 -124 -55&#10;-124 l-100 0 0 107 c0 59 -6 149 -13 200 l-12 93 74 0 75 0 -7 -135z m363 -5&#10;c0 -137 1 -140 51 -140 45 0 51 -8 45 -55 -6 -55 -6 -55 -166 -55 -160 0 -160&#10;0 -166 55 -6 50 -1 55 56 55 l63 0 -3 125 c-2 69 -2 132 -2 140 1 8 29 15 62&#10;15 l60 0 0 -140z m380 0 l0 -140 120 0 120 0 0 141 0 141 73 -6 73 -6 -4 -180&#10;c-5 -211 -7 -214 -134 -206 -84 5 -99 12 -104 51 -4 25 -15 45 -24 45 -9 0&#10;-20 -20 -24 -45 -11 -77 -323 -69 -332 9 -5 45 2 54 48 60 55 6 55 7 50 141&#10;l-5 135 72 0 71 0 0 -140z"/>
<path d="M2770 4456 c-118 -41 -159 -107 -100 -156 26 -21 30 -18 25 22 -7 61&#10;99 118 220 118 107 0 109 -34 5 -75 -91 -36 -95 -45 -40 -95 82 -74 4 -163&#10;-79 -90 l-45 38 46 81 c25 45 53 81 62 81 9 0 16 9 16 20 0 60 -67 4 -120 -99&#10;-76 -152 -76 -153 23 -169 147 -24 242 100 135 175 -42 30 -42 30 13 36 63 8&#10;101 56 83 104 -15 38 -147 43 -244 9z"/>
<path d="M3462 4365 c-31 -63 -77 -132 -100 -153 -48 -44 -56 -19 -13 39 38&#10;50 38 69 2 69 -18 0 -25 12 -18 30 6 17 3 30 -7 30 -29 0 -66 -45 -66 -81 0&#10;-17 -24 -54 -53 -81 l-52 -48 13 75 c17 93 -57 107 -139 26 -80 -80 -32 -156&#10;52 -80 34 31 39 31 39 3 0 -65 45 -55 121 27 78 85 101 93 56 21 -41 -65 -7&#10;-113 53 -74 46 30 59 27 52 -13 -4 -29 63 -14 121 27 65 47 75 133 14 122 -19&#10;-3 -40 4 -47 15 -13 22 49 119 76 120 9 1 -3 -27 -28 -62 l-44 -62 53 35 c65&#10;43 74 130 13 130 -28 0 -56 -33 -98 -115z m78 -102 c0 -26 -79 -91 -93 -76 -8&#10;7 3 31 23 53 38 42 70 52 70 23z"/>
<path d="M4700 4415 c-22 -36 -40 -72 -40 -80 0 -8 -23 -15 -51 -15 -31 0 -79&#10;-27 -125 -71 -73 -72 -106 -67 -65 9 38 72 3 88 -63 28 -35 -32 -37 -32 -25 0&#10;8 20 4 34 -9 34 -13 0 -31 -21 -40 -46 -36 -93 -90 -114 -74 -29 17 93 -68&#10;110 -145 29 -76 -81 -24 -166 54 -89 20 20 29 18 45 -10 15 -27 29 -31 56 -16&#10;20 11 42 14 48 8 7 -6 35 14 63 46 l52 57 -12 -53 c-12 -51 -10 -52 89 -52 56&#10;0 102 8 102 17 0 10 9 18 20 18 11 0 20 -22 20 -50 0 -38 11 -50 42 -50 35 0&#10;39 5 19 29 -41 49 -6 141 80 209 86 70 106 142 39 142 -24 0 -57 -26 -80 -65z&#10;m-570 -175 c-31 -33 -60 -56 -64 -53 -16 17 20 70 60 89 66 32 66 29 4 -36z&#10;m453 -2 c-37 -33 -73 -55 -80 -48 -16 16 90 110 123 109 13 0 -6 -28 -43 -61z"/>
<path d="M4940 4430 c-26 -27 -36 -50 -23 -50 12 0 23 -14 23 -30 0 -22 -13&#10;-27 -47 -19 -46 12 -113 -31 -113 -72 0 -27 19 -23 53 11 31 32 87 41 87 15 0&#10;-48 -127 -166 -164 -154 -29 10 -38 5 -32 -14 26 -77 148 -12 197 105 37 90&#10;141 85 134 -7 -4 -55 1 -64 35 -58 22 4 63 7 90 7 28 0 62 10 77 22 20 17 31&#10;14 46 -12 15 -27 27 -30 59 -13 30 16 48 15 69 -2 29 -24 130 55 153 121 6 17&#10;17 24 25 16 8 -7 1 -33 -15 -57 -65 -92 -7 -125 84 -48 34 29 71 46 83 39 31&#10;-20 -16 -71 -52 -57 -16 6 -29 1 -29 -11 0 -34 92 -26 122 10 22 27 21 36 -8&#10;57 -44 33 -43 65 4 90 43 23 103 -24 63 -48 -12 -8 -21 -35 -21 -60 0 -59 162&#10;-69 204 -13 20 27 20 28 -4 7 -59 -53 -84 -12 -28 45 18 17 27 38 19 45 -7 8&#10;-41 -17 -76 -54 -35 -37 -66 -57 -70 -45 -12 36 34 104 71 104 27 1 28 4 7 18&#10;-19 12 -21 21 -5 31 31 19 28 51 -5 51 -15 0 -37 -20 -49 -45 -12 -25 -22 -34&#10;-23 -20 -3 53 -161 12 -161 -42 0 -14 -22 -47 -50 -73 -38 -36 -50 -40 -50&#10;-16 0 17 14 42 30 56 38 32 38 60 0 60 -16 0 -28 7 -25 15 12 36 -33 31 -53&#10;-5 -78 -140 -165 -204 -108 -79 12 27 15 56 7 64 -9 8 -21 3 -26 -11 -5 -15&#10;-31 -51 -58 -80 l-50 -54 13 75 c16 104 -60 106 -164 5 -77 -74 -118 -91 -98&#10;-38 7 17 12 40 12 50 0 10 16 18 35 18 26 1 28 5 10 17 -20 12 -14 34 25 92&#10;29 42 47 81 40 88 -23 23 -78 -30 -100 -98 -25 -72 -60 -92 -109 -60 -23 15&#10;-24 28 -5 71 47 101 20 121 -56 40z m380 -136 c0 -4 -27 -32 -60 -64 -33 -32&#10;-60 -47 -60 -35 0 26 78 105 104 105 9 0 16 -3 16 -6z"/>
<path d="M6262 4405 c-25 -41 -63 -105 -85 -142 -42 -73 -76 -75 -37 -3 31 59&#10;10 75 -40 30 -25 -22 -36 -51 -29 -73 7 -22 -5 -48 -33 -71 -95 -76 -141 -128&#10;-133 -152 16 -48 84 -23 127 46 66 104 134 173 143 144 11 -31 78 -31 97 -1&#10;10 16 4 20 -18 11 -63 -24 -53 22 19 92 40 39 85 66 100 60 15 -6 27 0 27 12&#10;0 12 -9 22 -21 22 -14 0 -14 12 0 37 50 94 -59 83 -117 -12z m58 -24 c-52 -74&#10;-102 -108 -59 -40 18 27 39 60 47 74 8 14 23 25 35 25 11 0 1 -27 -23 -59z"/>
<path d="M6631 4356 c-17 -25 -31 -34 -31 -20 0 37 -96 29 -131 -11 -16 -19&#10;-53 -62 -81 -95 l-51 -60 12 80 12 80 -40 -50 c-48 -60 -48 -62 -15 -108 25&#10;-34 30 -33 90 17 35 30 73 48 85 41 31 -20 -16 -71 -52 -57 -16 6 -29 1 -29&#10;-11 0 -34 92 -26 122 10 22 27 21 36 -10 59 -50 36 -27 94 33 85 28 -4 42 -18&#10;37 -36 -17 -59 -11 -126 10 -134 29 -10 122 66 104 85 -8 7 -29 -1 -47 -20&#10;-45 -44 -56 -28 -27 36 15 32 41 54 66 54 40 2 40 3 3 17 -26 10 -31 20 -15&#10;30 13 8 24 23 24 33 0 34 -37 20 -69 -25z"/>
<path d="M3825 4367 c-14 -6 -25 -26 -25 -46 0 -20 -15 -48 -33 -63 -29 -25&#10;-31 -23 -18 19 21 68 -81 52 -135 -21 -92 -123 34 -153 151 -36 92 92 114 102&#10;66 28 -59 -89 -13 -139 66 -71 61 53 53 71 -12 28 l-54 -35 46 75 c46 74 46&#10;75 5 75 -28 0 -37 9 -29 30 12 32 11 32 -28 17z m-85 -147 c0 -22 -96 -51&#10;-114 -33 -6 7 10 21 36 31 63 26 78 26 78 2z"/>
</g>
</svg>